<?xml version="1.0" encoding="UTF-8" standalone="no"?>
<!-- Generator: Adobe Illustrator 18.1.1, SVG Export Plug-In . SVG Version: 6.00 Build 0)  -->

<svg
   xmlns:dc="http://purl.org/dc/elements/1.1/"
   xmlns:cc="http://creativecommons.org/ns#"
   xmlns:rdf="http://www.w3.org/1999/02/22-rdf-syntax-ns#"
   xmlns:svg="http://www.w3.org/2000/svg"
   xmlns="http://www.w3.org/2000/svg"
   xmlns:sodipodi="http://sodipodi.sourceforge.net/DTD/sodipodi-0.dtd"
   xmlns:inkscape="http://www.inkscape.org/namespaces/inkscape"
   version="1.1"
   id="Capa_1"
   x="0px"
   y="0px"
   viewBox="0 0 306.314 306.314"
   style="enable-background:new 0 0 306.314 306.314;"
   xml:space="preserve"
   sodipodi:docname="book-and-magnifying-glass.svg"
   inkscape:version="0.92.4 (5da689c313, 2019-01-14)"><metadata
   id="metadata39"><rdf:RDF><cc:Work
       rdf:about=""><dc:format>image/svg+xml</dc:format><dc:type
         rdf:resource="http://purl.org/dc/dcmitype/StillImage" /></cc:Work></rdf:RDF></metadata><defs
   id="defs37" /><sodipodi:namedview
   pagecolor="#ffffff"
   bordercolor="#666666"
   borderopacity="1"
   objecttolerance="10"
   gridtolerance="10"
   guidetolerance="10"
   inkscape:pageopacity="0"
   inkscape:pageshadow="2"
   inkscape:window-width="1582"
   inkscape:window-height="804"
   id="namedview35"
   showgrid="false"
   inkscape:zoom="0.5447913"
   inkscape:cx="-290.60508"
   inkscape:cy="356.67638"
   inkscape:window-x="1062"
   inkscape:window-y="106"
   inkscape:window-maximized="0"
   inkscape:current-layer="Capa_1" />
<path
   d="m 295.1538,303.14409 c -1.9991,0 -3.99724,-0.76236 -5.52193,-2.28707 l -27.40959,-27.40861 c -10.13024,7.74361 -22.48993,11.93704 -35.52411,11.93704 -15.68243,0 -30.39069,-6.07053 -41.41309,-17.09292 -22.83545,-22.83547 -22.83545,-59.99069 -9.6e-4,-82.82518 h 9.6e-4 c 11.0224,-11.0224 25.72969,-17.09194 41.41309,-17.09194 15.68338,0 30.39067,6.07051 41.41209,17.09293 11.02143,11.02141 17.09194,25.72869 17.09194,41.41209 0,13.03516 -4.19245,25.39389 -11.93702,35.52508 l 27.41056,27.40958 c 3.0494,3.04942 3.0494,7.99349 0,11.0429 -1.52569,1.52374 -3.5238,2.2861 -5.52194,2.2861 z M 196.32798,196.51025 c -16.74443,16.74542 -16.74443,43.99199 0,60.73741 8.07354,8.07256 18.85776,12.5188 30.3692,12.5188 11.51144,0 22.29666,-4.44624 30.36725,-12.5188 8.07255,-8.07253 12.51782,-18.85775 12.51782,-30.36919 0,-11.51144 -4.44624,-22.29665 -12.51782,-30.36822 -8.07158,-8.07255 -18.85581,-12.51783 -30.36725,-12.51783 -11.51144,0 -22.29663,4.44625 -30.3692,12.51783 z M 123.3939,301.921 c -1.07179,0 -2.14651,-0.22061 -3.15582,-0.6667 L 96.611953,290.81172 74.542745,301.17914 c -2.417862,1.13719 -5.249599,0.95661 -7.506399,-0.47537 -2.2568,-1.43295 -3.6224,-3.92011 -3.6224,-6.59178 v -33.8969 H 41.455042 c -4.31252,0 -7.808999,-3.49648 -7.808999,-7.809 V 11.952372 c 0,-4.3125195 3.496479,-7.8089987 7.808999,-7.8089987 H 241.83395 c 4.31252,0 7.809,3.4964792 7.809,7.8089987 V 145.38279 c 0,4.3125 -3.49648,7.80899 -7.809,7.80899 -4.31251,0 -7.80898,-3.49649 -7.80898,-7.80899 V 19.76137 H 49.264041 V 244.59709 H 146.653 c 4.31252,0 7.80899,3.49648 7.80899,7.809 0,4.31252 -3.49647,7.809 -7.80899,7.809 h -15.4501 v 33.8969 c 0,2.64042 -1.33437,5.10222 -3.54725,6.54395 -1.2875,0.83849 -2.77122,1.26506 -4.26175,1.26506 z M 96.512388,274.42259 c 1.075689,0 2.151379,0.22255 3.156787,0.6667 l 15.915725,7.03493 V 260.21606 H 79.030967 v 21.60068 l 14.161621,-6.65231 c 1.05031,-0.49489 2.184566,-0.74184 3.3198,-0.74184 z m -84.702259,-14.2075 c -4.312519,0 -7.8089983,-3.49648 -7.8089983,-7.809 V 11.952372 c 0,-4.3125195 3.4964793,-7.8089987 7.8089983,-7.8089987 4.31252,0 7.808999,3.4964792 7.808999,7.8089987 V 252.40609 c 0,4.31252 -3.495503,7.809 -7.808999,7.809 z M 185.98009,99.640596 H 97.30793 c -4.312521,0 -7.809,-3.496481 -7.809,-7.808999 0,-4.312519 3.496479,-7.809 7.809,-7.809 h 88.67216 c 4.31252,0 7.809,3.496481 7.809,7.809 0,4.312518 -3.49648,7.808999 -7.809,7.808999 z M 157.76813,67.434332 H 125.5199 c -4.31252,0 -7.809,-3.496479 -7.809,-7.809 0,-4.312518 3.49648,-7.808998 7.809,-7.808998 h 32.24823 c 4.31252,0 7.809,3.49648 7.809,7.808998 0,4.312521 -3.49648,7.809 -7.809,7.809 z"
   id="path2"
   style="fill:#000000;stroke:#000000;stroke-width:6.41835833;stroke-miterlimit:4;stroke-dasharray:none;stroke-opacity:1"
   inkscape:connector-curvature="0" />
<g
   id="g4">
</g>
<g
   id="g6">
</g>
<g
   id="g8">
</g>
<g
   id="g10">
</g>
<g
   id="g12">
</g>
<g
   id="g14">
</g>
<g
   id="g16">
</g>
<g
   id="g18">
</g>
<g
   id="g20">
</g>
<g
   id="g22">
</g>
<g
   id="g24">
</g>
<g
   id="g26">
</g>
<g
   id="g28">
</g>
<g
   id="g30">
</g>
<g
   id="g32">
</g>
</svg>